<?xml version="1.0" encoding="utf-8"?>
<!-- Generator: Adobe Illustrator 28.0.0, SVG Export Plug-In . SVG Version: 6.00 Build 0)  -->
<svg version="1.1" id="Capa_1" xmlns="http://www.w3.org/2000/svg" xmlns:xlink="http://www.w3.org/1999/xlink" x="0px" y="0px"
	 viewBox="0 0 500 354" style="enable-background:new 0 0 500 354;" xml:space="preserve">
<style type="text/css">
	.st0{fill:#026CD2;}
	.st1{fill:#0026CD;}
</style>
<path class="st0" d="M340,7.8c2,0.9,4,1.8,6,2.7c9.8,4.5,14.2,12.6,14.3,22.9c0.3,29.7,0.3,59.3,0.4,89c0,17.5-1.4,34.8-7.7,51.4
	c-4.4,11.6-10.5,22.2-18.8,31.5c-7.4,8.3-15.8,15.1-25,20.9c-9.9,6.2-20.5,10.6-32,13.4c-9.5,2.3-18.9,3.6-28.5,3.4
	c-14.9-0.3-29.2-3.6-43-9.7c-16.4-7.3-29.9-18.3-41.4-31.7c-11.8-13.7-19.8-29.7-23.9-47.3c-1.6-7-2.3-14.2-3.3-21.3
	c-0.3-2.5-0.7-5-0.6-7.4c0.5-20.3,4.6-39.6,14.5-57.5c7.3-13.2,16.9-24.5,28.5-34.2c14.5-12.1,31.1-19.8,49.4-24.1
	c4.4-1.1,8.9-1.7,13.3-2.6c0.7,0,1.3,0,2,0h2.6C277.8,7.4,308.9,7.6,340,7.8L340,7.8z M273,148.2c0,3.6,0.1,6.7-0.1,9.7
	c-0.3,4-1.7,7.4-5.3,9.8c-5.9,4-12.5,4.5-19.3,4.1c-13.2-0.8-18.8-7.7-19.4-19.6c-0.7-13.2-0.1-26.4,0.1-39.6
	c0.1-5.3,0.1-10.7,0.9-16c0.8-5.3,3.5-9.6,8.7-12c5.7-2.7,11.5-3,17.6-1.9c5.5,1,10.3,3,13.2,8c1.5,2.7,2.6,5.6,3.9,8.4
	c1.3,3,3.8,4.5,6.8,3.6c8-2.4,16.1-4.9,24-7.8c4-1.5,4.9-4.1,3.8-8.3c-0.6-2.1-1.1-4.3-2-6.4c-3.4-8.4-8.3-15.8-15.8-21.1
	c-7.8-5.5-16.4-8.9-26-10.2c-8.9-1.2-17.6-1.6-26.5-0.1c-13,2.1-24.3,7.1-33.2,17.2c-8.1,9.1-12.2,19.8-12.7,31.6
	c-0.8,16.8-0.3,33.7-0.6,50.6c-0.1,7.5,0.4,15,3,22c8.9,24.1,27.3,35,51,36.1c6.8,0.3,13.7-0.2,20.5-1.2c12.9-1.9,24-7.3,32.7-17.3
	c7.5-8.7,11.5-18.8,11.9-30c0.5-11.4,0.2-22.9,0.1-34.3c0-3.2-2.1-6.1-4.7-6.6c-1.9-0.4-3.9-0.5-5.8-0.6
	c-14.8-0.1-29.5-0.2-44.3-0.3c-1.6,0-3.3,0.3-4.9,0.4c-3.5,0.2-5,2.3-5,5.6c-0.1,6.6-0.2,13.2-0.1,19.8c0.1,4.4,2.2,6.4,6.7,6.4
	C258.9,148.1,265.9,148.2,273,148.2L273,148.2z"/>
<path class="st0" d="M1.9,270.9c1.1-3.2,2.1-6.5,3.5-9.7c4.1-9.5,11.6-15.2,21.3-17.6c12.3-3.1,24.7-2.9,36.2,3.2
	c8.2,4.4,13.3,11.5,15.7,20.5c0.6,2.3-0.4,4.5-2.7,5.3c-5.3,1.7-10.6,3-15.9,4.6c-2.9,0.9-4.4-1-4.9-3.2
	c-2.5-10.7-16.2-12.2-23.5-7.7c-4,2.5-4.9,6.8-5,10.9c-0.2,10.1,0,20.3-0.1,30.4c-0.1,8.5,5,15.3,13.9,14.4c2.6-0.3,5.2-0.2,7.7-0.6
	c3.7-0.7,8-5,7.2-9c-0.3-1.7,0-3.5,0-5.5c-4.7,0-9.2,0-13.7-0.1c-3.4,0-4.7-1.3-4.8-4.7c-0.1-3.4,0-6.8,0.1-10.3
	c0-4.4,1.4-5.8,5.9-5.9c7.7,0,15.4,0.1,23.1,0.1c3,0,6,0,8.9,0.1c3.5,0.1,5.2,1.9,5.2,5.4c0,7.3,0.3,14.6-0.3,21.8
	c-1.3,15.3-10.6,25.7-25.9,29.8c-1.6,0.4-3.2,0.9-4.8,1.3l-15.9-0.1c-0.2-0.2-0.4-0.6-0.7-0.6c-15.6-2-25.7-10.7-29.6-26.2
	c-0.4-1.4-0.7-2.8-1.1-4.2C1.8,299.2,1.9,285.1,1.9,270.9L1.9,270.9z"/>
<path class="st0" d="M163.5,345.3c-3.5-1.1-7.2-1.8-10.4-3.4c-9.6-5-14.4-13.2-14.5-24c0-7.7,0.2-15.4,0.2-23.1
	c0.1-10.4,6.9-20.4,16.6-23.4c10.6-3.3,21.5-3.5,31.7,1c7.1,3.1,11.9,9,13.2,16.9c2.2,13,2.7,26.1-1.1,38.8
	c-2.8,9.3-12.6,16.1-22.2,16.7c-0.5,0-1.1,0.4-1.6,0.6L163.5,345.3L163.5,345.3z M161.7,306.7c0,3.4,0,6.8-0.1,10.3
	c0,3.9,2.6,7.4,5.8,7.8c5.9,0.7,9.9-1.4,10.7-6c0.5-2.7,0.4-5.5,0.5-8.2c0.1-4.5,0.2-9,0-13.5c-0.3-5.9-3.5-8.2-10.3-7.9
	c-4,0.2-6.6,3.4-6.6,8.4C161.7,300.6,161.7,303.7,161.7,306.7L161.7,306.7z"/>
<path class="st0" d="M408,346.7c-2.3-0.7-4.6-1.4-6.9-2.1c-10.8-3-16.8-13.7-17.4-23.4c-0.5-7.8-1-15.6-0.5-23.4
	c1-14.9,9.9-27.3,28-27.2c6.2,0,12.4-0.3,18.3,2.1c9,3.7,14.1,10.6,15.6,19.9c0.9,5.4,0.7,11.1,0.6,16.7c-0.1,3.8-2.6,5.9-6.6,5.9
	c-9.8,0-19.6-0.1-29.4-0.1c-1.1,0-2.1,0-3.5,0c0,2.2-0.4,4.2,0.1,6.1c0.8,3.2,2,6.6,5.8,6.9c4.5,0.5,9.2,0.9,12.3-3.8
	c2.7-4.1,3.1-4.1,7.6-2.1c2.7,1.1,5.2,2.3,7.9,3.3c5.4,1.9,4.2,5.3,2.3,8.7c-4.4,8-12.1,10.5-20.4,11.9c-0.7,0.1-1.3,0.4-2,0.7
	C416,346.8,412,346.7,408,346.7L408,346.7z M406.4,298.4c0.2,0.2,0.4,0.3,0.5,0.5c5.4,0,10.9,0.1,16.5,0.1c-0.3-3.8,0-7.4-3.1-9.9
	c-4.4-3.6-12.8-0.8-14,4.7C406.1,295.3,406.4,296.9,406.4,298.4L406.4,298.4z"/>
<path class="st0" d="M498,341.3c-2.4,3.8-6.1,4.5-10.1,3.9c-5-0.8-10.3-1.4-15-3.1c-7.4-2.7-10.5-9.3-11-16.6
	c-0.7-9.6-0.5-19.2-0.6-28.9c0-1.2,0-2.4,0-3.4c-2.4-0.4-4.5-0.7-6.6-1.1c-2.5-0.5-3.3-2.3-3.3-4.5c-0.1-3.4,0.1-6.8,0-10.2
	c-0.1-3.1,1-4.7,4.8-5.1c1.6-0.2,3.2,0,5.1,0c0-4.2,0.2-8.1,0-12.1c-0.1-2.5,1.2-4.2,3.1-4.2c5.4-0.2,10.9,0.1,16.3,0.4
	c3,0.1,3.8,2.3,3.8,4.9c0,3.8,0,7.6-0.1,11.8c2.5,0,4.8,0.3,7,0c3.4-0.4,5.7,0.7,6.8,4.1c0,4-0.1,7.9-0.1,11.9
	c-3.4,5.4-9,2.3-13.7,3.6c-0.1,8.6-0.3,17.1-0.1,25.6c0.1,4,2.5,6,6.6,5.7c3.5-0.2,5.8,0.8,7,4.1C498,332.5,498,336.9,498,341.3
	L498,341.3z"/>
<path class="st1" d="M246.8,7.2h-2.6C245,7.2,245.9,7.2,246.8,7.2z"/>
<path class="st0" d="M273.7,317.1c1.1-8.6,2-16.6,3.1-24.5c0.8-5.5,1.6-11,2.8-16.5c0.5-2.4,1.9-4.4,5.2-4.2c5,0.3,9.9,0.1,14.9,0.1
	c3.6,0,4.4,0.8,3.6,4.3c-1.4,6.3-3.1,12.5-4.7,18.7c-3.6,14.6-7.2,29.1-10.9,43.7c-0.7,2.8-2.2,4.8-5.3,4.8
	c-5.3,0-10.6-0.2-15.8-0.1c-3.3,0-4.7-2.1-5.2-4.7c-1.7-9.3-3.1-18.6-4.6-27.9c-0.7-4.2-1.1-8.4-2.3-12.6c-0.5,3-1.1,5.9-1.6,8.9
	c-2.1,10.9-4,21.7-6.3,32.5c-0.3,1.4-2.5,3.4-4,3.4c-5.7,0.3-11.4,0.2-17.1-0.2c-1.1-0.1-2.8-2-3.2-3.4c-2.5-9.2-4.9-18.5-7.1-27.8
	c-2.7-11.3-5.3-22.7-8-34.1c-1.3-5.3-0.4-6.7,5-6.6c4.7,0.1,9.4,0.5,14.1,0.5c3.3,0,4.5,2.3,4.8,4.8c1.7,11.5,3.1,23.1,4.6,34.7
	c0.3,2.2,0.6,4.5,1,7.1c0.8-7.1,1.4-13.8,2.5-20.5c1.2-7.6,2.6-15.2,4.2-22.7c0.3-1.2,2.3-2.9,3.6-3c5.5-0.3,11-0.1,16.5,0
	c2.3,0,3.7,1.4,4,3.6c1.9,12.6,5.4,24.9,5.2,37.8C272.7,314.4,273.2,315.5,273.7,317.1L273.7,317.1z"/>
<path class="st0" d="M335,291.5c-0.1,14.4-0.2,28.5-0.3,42.6c0,1.4,0,2.9,0,4.3c-0.2,4.3-1.6,5.5-5.8,5.5c-4.3-0.1-8.6,0-12.9,0
	c-3.4-0.1-4.4-1.1-4.3-4.6c0.1-19.3,0.3-38.6,0.3-57.8c0-3,1.1-5.2,3.9-6.4c6.7-2.8,13.6-4.4,20.9-4.9c6.3-0.4,12.4-0.2,18.5,1.4
	c8.8,2.3,13.8,8.1,15.9,16.4c1.2,4.9,1.5,10.1,1.6,15.2c0.2,11.6-0.1,23.1-0.1,34.7c0,4.6-1.7,6.2-6.3,6.2
	c-3.9-0.1-7.7-0.1-11.6-0.1c-4.3,0-5.4-1.1-5.4-5.4c0-12.7,0.3-25.3,0.1-38c0-2.5-0.8-5.5-2.3-7.4C344,289,339.4,291,335,291.5
	L335,291.5z"/>
<path class="st0" d="M91.2,309c0.1-9.4,0.1-18.7,0.1-28.1c0-3.2,1.5-5,4.4-6.2c11.3-4.8,23.2-3.8,35-3.6c0.9,0,2.4,2.2,2.5,3.4
	c0.3,4.2,0.2,8.4,0,12.5c-0.1,2.5-1.6,3.6-4.1,3.7c-3.9,0.1-7.8,0.5-11.7,0.5c-2.4,0-3.2,1-3.2,3.4c0,13.9-0.1,27.8-0.2,41.6
	c0,5.4-0.9,6.3-6.3,6.2c-3.8-0.1-7.5-0.1-11.2-0.1c-4.9,0-5.5-0.5-5.5-5.5C91,327.7,91.1,318.4,91.2,309L91.2,309L91.2,309z"/>
<path class="st0" d="M406.4,298.4c0.2,0.2,0.4,0.3,0.5,0.5C406.8,298.8,406.6,298.6,406.4,298.4z"/>
</svg>
