<?xml version="1.0" encoding="utf-8"?>
<!-- Generator: Adobe Illustrator 28.0.0, SVG Export Plug-In . SVG Version: 6.00 Build 0)  -->
<svg version="1.1" id="Capa_1" xmlns="http://www.w3.org/2000/svg" xmlns:xlink="http://www.w3.org/1999/xlink" x="0px" y="0px"
	 viewBox="0 0 376 113.2" style="enable-background:new 0 0 376 113.2;" xml:space="preserve">
<style type="text/css">
	.st0{fill:#FFFFFF;}
	.st1{fill:#026CD2;}
</style>
<g>
	<path class="st0" d="M99.7,1.5c0.9,0.4,1.8,0.9,2.7,1.3c4.5,2,6.7,5.8,6.7,10.8c0.2,13.9,0.2,27.9,0.2,41.6
		c0,8.1-0.7,16.2-3.6,24.1c-2,5.4-4.9,10.3-8.8,14.8c-3.4,3.8-7.4,7.2-11.7,9.9c-4.5,2.9-9.7,4.9-15.1,6.3
		c-4.5,1.1-8.8,1.8-13.3,1.6c-7-0.2-13.7-1.6-20-4.5C29.3,104,23,98.9,17.6,92.6C12,86.3,8.4,78.6,6.3,70.3
		c-0.7-3.4-1.1-6.7-1.6-9.9c-0.2-1.1-0.2-2.2-0.2-3.4c0.2-9.4,2.2-18.4,6.7-27c3.1-6.5,7.6-11.7,13.3-16.2
		c6.7-5.6,14.6-9.2,23.2-11.2c1.8-0.7,4-0.9,6.1-1.3h2.2C70.5,1.2,85.1,1.5,99.7,1.5L99.7,1.5L99.7,1.5z M68.4,67.1
		c0,1.8,0,3.1,0,4.5c-0.2,1.8-0.9,3.4-2.5,4.5c-2.7,1.8-5.8,2-9,1.8c-6.1-0.4-8.8-3.6-9.2-9.2c-0.2-6.1,0-12.4,0-18.4
		c0-2.5,0-4.9,0.4-7.4c0.4-2.5,1.6-4.5,4-5.6c2.7-1.3,5.4-1.3,8.3-0.9c2.5,0.4,4.7,1.3,6.3,3.8c0.7,1.3,1.1,2.7,1.8,4
		c0.7,1.3,1.8,2,3.1,1.6c3.8-1.1,7.6-2.2,11.2-3.6c1.8-0.7,2.2-2,1.8-3.8c-0.2-1.1-0.4-2-0.9-2.9c-1.6-4-3.8-7.4-7.4-9.9
		c-3.6-2.5-7.6-4.3-12.1-4.7c-4.3-0.4-8.3-0.7-12.4,0c-6.1,0.9-11.5,3.4-15.5,8.1c-3.8,4.3-5.6,9.2-5.8,14.8
		c-0.4,7.9-0.2,15.7-0.2,23.6c0,3.6,0.2,7,1.3,10.3C36,89,44.6,94.1,55.6,94.6c3.1,0.2,6.5,0,9.7-0.4c6.1-0.9,11.2-3.4,15.3-8.1
		c3.6-4,5.4-8.8,5.6-13.9c0.2-5.4,0-10.8,0-16c0-1.6-0.9-2.9-2.2-3.1c-0.9-0.2-1.8-0.2-2.7-0.2c-7,0-13.7,0-20.7,0
		c-0.7,0-1.6,0.2-2.2,0.2c-1.6,0-2.2,1.1-2.2,2.7c0,3.1,0,6.3,0,9.2c0,2,1.1,2.9,3.1,2.9C61.7,67.1,64.8,67.1,68.4,67.1L68.4,67.1
		L68.4,67.1z"/>
	<g>
		<path class="st0" d="M138.8,45.6c0.4-1.6,0.9-3.1,1.6-4.5c1.8-4.5,5.4-7,9.9-8.1c5.8-1.3,11.5-1.3,16.9,1.6c3.8,2,6.3,5.4,7.4,9.7
			c0.2,1.1-0.2,2-1.3,2.5c-2.5,0.9-4.9,1.3-7.4,2.2c-1.3,0.4-2-0.4-2.2-1.3c-1.1-4.9-7.6-5.6-11-3.6c-1.8,1.1-2.2,3.1-2.2,5.2
			c-0.2,4.7,0,9.4,0,14.2c0,4,2.2,7.2,6.5,6.7c1.1-0.2,2.5,0,3.6-0.2c1.8-0.2,3.8-2.2,3.4-4.3c-0.2-0.9,0-1.6,0-2.5
			c-2.2,0-4.3,0-6.3,0c-1.6,0-2.2-0.7-2.2-2.2v-4.7c0-2,0.7-2.7,2.7-2.7c3.6,0,7.2,0,10.8,0c1.3,0,2.7,0,4.3,0
			c1.6,0,2.5,0.9,2.5,2.5c0,3.4,0.2,6.7-0.2,10.1c-0.7,7.2-4.9,11.9-12.1,13.9c-0.7,0.2-1.6,0.4-2.2,0.7h-7.4l-0.2-0.2
			c-7.4-1.1-12.1-5.2-13.9-12.4c-0.2-0.7-0.4-1.3-0.4-2C138.8,58.8,138.8,52.3,138.8,45.6L138.8,45.6L138.8,45.6z"/>
		<path class="st0" d="M214.4,80.4c-1.6-0.4-3.4-0.9-4.9-1.6c-4.5-2.2-6.7-6.1-6.7-11.2c0-3.6,0-7.2,0.2-10.8c0-4.9,3.1-9.4,7.9-11
			c4.9-1.6,10.1-1.6,14.8,0.4c3.4,1.3,5.6,4.3,6.3,7.9c0.9,6.1,1.3,12.1-0.4,18.2c-1.3,4.3-5.8,7.6-10.3,7.9c-0.2,0-0.4,0.2-0.7,0.2
			H214.4L214.4,80.4L214.4,80.4z M213.8,62.4c0,1.6,0,3.1,0,4.7c0,1.8,1.1,3.4,2.7,3.6c2.7,0.2,4.7-0.7,4.9-2.7
			c0.2-1.3,0.2-2.5,0.2-3.8c0-2,0.2-4.3,0-6.3c-0.2-2.7-1.6-3.8-4.9-3.6c-1.8,0-3.1,1.6-3.1,4C213.8,59.5,213.8,60.8,213.8,62.4
			L213.8,62.4L213.8,62.4z"/>
		<path class="st0" d="M329.2,81.1c-1.1-0.2-2-0.7-3.1-0.9c-4.9-1.3-7.9-6.5-8.1-11c-0.2-3.6-0.4-7.4-0.2-11c0.4-7,4.7-12.8,13-12.8
			c2.9,0,5.8-0.2,8.5,0.9c4.3,1.8,6.5,4.9,7.2,9.2c0.4,2.5,0.2,5.2,0.2,7.9c0,1.8-1.1,2.7-3.1,2.7c-4.5,0-9.2,0-13.7,0h-1.6
			c0,1.1-0.2,2,0,2.9c0.4,1.3,0.9,3.1,2.7,3.1c2,0.2,4.3,0.4,5.8-1.8c1.3-1.8,1.3-2,3.6-1.1c1.3,0.4,2.5,1.1,3.6,1.6
			c2.5,0.9,2,2.5,1.1,4c-2,3.8-5.6,4.9-9.4,5.6c-0.2,0-0.7,0.2-0.9,0.2L329.2,81.1L329.2,81.1L329.2,81.1z M328.3,58.4l0.2,0.2h7.6
			c-0.2-1.8,0-3.4-1.3-4.7c-2-1.8-6.1-0.4-6.5,2.2C328.3,57,328.3,57.7,328.3,58.4L328.3,58.4L328.3,58.4z"/>
		<path class="st0" d="M371.2,78.4c-1.1,1.8-2.9,2-4.7,1.8c-2.5-0.4-4.7-0.7-7-1.6c-3.6-1.3-4.9-4.3-5.2-7.6
			c-0.2-4.5-0.2-9-0.2-13.5v-1.6c-1.1-0.2-2-0.2-3.1-0.4c-1.1-0.2-1.6-1.1-1.6-2c0-1.6,0-3.1,0-4.7c0-1.3,0.4-2.2,2.2-2.2
			c0.7,0,1.6,0,2.5,0c0-2,0.2-3.8,0-5.6c0-1.1,0.4-2,1.3-2c2.5,0,5.2,0,7.6,0.2c1.3,0,1.8,1.1,1.8,2.2c0,1.8,0,3.6,0,5.6
			c1.1,0,2.2,0,3.4,0c1.6-0.2,2.7,0.2,3.1,1.8v5.6c-1.6,2.5-4.3,1.1-6.5,1.6c0,4-0.2,8.1,0,11.9c0,1.8,1.1,2.7,3.1,2.7
			c1.6,0,2.7,0.4,3.4,2L371.2,78.4L371.2,78.4L371.2,78.4z"/>
		<path class="st0" d="M266.2,67.1c0.4-4,0.9-7.9,1.6-11.5c0.4-2.5,0.7-5.2,1.3-7.6c0.2-1.1,0.9-2,2.5-2c2.2,0.2,4.7,0,7,0
			c1.8,0,2,0.4,1.8,2c-0.7,2.9-1.6,5.8-2.2,8.8c-1.8,6.7-3.4,13.7-5.2,20.5c-0.4,1.3-1.1,2.2-2.5,2.2c-2.5,0-4.9,0-7.4,0
			c-1.6,0-2.2-0.9-2.5-2.2c-0.7-4.3-1.6-8.8-2-13c-0.2-2-0.4-3.8-1.1-5.8c-0.2,1.3-0.4,2.7-0.7,4.3c-0.9,5.2-1.8,10.1-2.9,15.3
			c-0.2,0.7-1.1,1.6-1.8,1.6c-2.7,0.2-5.4,0-8.1,0c-0.4,0-1.3-0.9-1.6-1.6c-1.1-4.3-2.2-8.8-3.4-13c-1.3-5.4-2.5-10.6-3.8-16
			c-0.7-2.5-0.2-3.1,2.2-3.1c2.2,0,4.5,0.2,6.5,0.2c1.6,0,2,1.1,2.2,2.2c0.7,5.4,1.3,10.8,2,16.2c0.2,1.1,0.2,2,0.4,3.4
			c0.4-3.4,0.7-6.5,1.1-9.4c0.4-3.6,1.1-7.2,2-10.6c0.2-0.7,1.1-1.3,1.8-1.3c2.5-0.2,5.2,0,7.6,0c1.1,0,1.8,0.7,1.8,1.6
			c0.9,5.8,2.5,11.7,2.5,17.8C265.7,65.8,265.9,66.5,266.2,67.1L266.2,67.1L266.2,67.1z"/>
		<path class="st0" d="M295,55.2c0,6.7,0,13.3-0.2,20v2c0,2-0.7,2.7-2.7,2.5c-2,0-4,0-6.1,0c-1.6,0-2-0.4-2-2.2c0-9,0.2-18,0.2-27
			c0-1.3,0.4-2.5,1.8-2.9c3.1-1.3,6.3-2,9.7-2.2c2.9-0.2,5.8,0,8.8,0.7c4,1.1,6.5,3.8,7.4,7.6c0.4,2.2,0.7,4.7,0.7,7
			c0,5.4,0,10.8,0,16.2c0,2.2-0.9,2.9-2.9,2.9c-1.8,0-3.6,0-5.4,0c-2,0-2.5-0.4-2.5-2.5c0-5.8,0.2-11.9,0-17.8
			c0-1.1-0.4-2.5-1.1-3.4C299,54.1,297,55,295,55.2L295,55.2L295,55.2z"/>
		<path class="st0" d="M180.7,63.3c0-4.5,0-8.8,0-13c0-1.6,0.7-2.2,2-2.9c5.4-2.2,10.8-1.8,16.4-1.6c0.4,0,1.1,1.1,1.1,1.6
			c0.2,2,0,3.8,0,5.8c0,1.1-0.7,1.8-1.8,1.8c-1.8,0-3.6,0.2-5.4,0.2c-1.1,0-1.6,0.4-1.6,1.6c0,6.5,0,13,0,19.6
			c0,2.5-0.4,2.9-2.9,2.9c-1.8,0-3.6,0-5.2,0c-2.2,0-2.5-0.2-2.5-2.5C180.7,72.1,180.7,67.8,180.7,63.3L180.7,63.3L180.7,63.3z"/>
	</g>
	<path class="st1" d="M130.7,56.3l0.2,0.2C131,56.6,131,56.3,130.7,56.3z"/>
</g>
</svg>
